<?xml version="1.0" encoding="UTF-8" standalone="no"?>
<!-- Created with Inkscape (http://www.inkscape.org/) -->

<svg
   xmlns:dc="http://purl.org/dc/elements/1.1/"
   xmlns:cc="http://creativecommons.org/ns#"
   xmlns:rdf="http://www.w3.org/1999/02/22-rdf-syntax-ns#"
   xmlns:svg="http://www.w3.org/2000/svg"
   xmlns="http://www.w3.org/2000/svg"
   xmlns:xlink="http://www.w3.org/1999/xlink"
   xmlns:sodipodi="http://sodipodi.sourceforge.net/DTD/sodipodi-0.dtd"
   xmlns:inkscape="http://www.inkscape.org/namespaces/inkscape"
   id="svg2"
   version="1.1"
   inkscape:version="0.92.2 (5c3e80d, 2017-08-06)"
   xml:space="preserve"
   width="1488.1875"
   height="1052.3625"
   viewBox="0 0 1488.1875 1052.3625"
   sodipodi:docname="Genome_Detective_Logo_1.svg"
   inkscape:export-filename="C:\Users\wim\Documents\emweb\marketing\Logos\genome detective\genomedetective.png"
   inkscape:export-xdpi="75"
   inkscape:export-ydpi="75"><metadata
     id="metadata8"><rdf:RDF><cc:Work
         rdf:about=""><dc:format>image/svg+xml</dc:format><dc:type
           rdf:resource="http://purl.org/dc/dcmitype/StillImage" /><dc:title /></cc:Work></rdf:RDF></metadata><defs
     id="defs6"><linearGradient
       id="linearGradient4614"
       inkscape:collect="always"><stop
         style="stop-color:#1eb6a9;stop-opacity:1"
         offset="0"
         id="stop4622" /><stop
         id="stop4624"
         offset="1"
         style="stop-color:#40e0d0;stop-opacity:1" /></linearGradient><clipPath
       clipPathUnits="userSpaceOnUse"
       id="clipPath16"><path
         d="m 0,841.89 1190.55,0 L 1190.55,0 0,0 0,841.89 Z"
         id="path18"
         inkscape:connector-curvature="0" /></clipPath><clipPath
       clipPathUnits="userSpaceOnUse"
       id="clipPath24"><path
         d="m -21.204,-1.418 -1189.472,0 0,841.088 1189.472,0 0,-841.088 z"
         id="path26"
         inkscape:connector-curvature="0" /></clipPath><clipPath
       clipPathUnits="userSpaceOnUse"
       id="clipPath32"><path
         d="m -1354.09,1015.31 1458.517,0 0,-1165.44 -1458.517,0 0,1165.44 z"
         id="path34"
         inkscape:connector-curvature="0" /></clipPath><clipPath
       id="clipPath16-1"
       clipPathUnits="userSpaceOnUse"><path
         inkscape:connector-curvature="0"
         id="path18-7"
         d="m 0,841.89 1190.55,0 L 1190.55,0 0,0 0,841.89 Z" /></clipPath><clipPath
       id="clipPath24-5"
       clipPathUnits="userSpaceOnUse"><path
         inkscape:connector-curvature="0"
         id="path26-9"
         d="m -21.204,-1.418 -1189.472,0 0,841.088 1189.472,0 0,-841.088 z" /></clipPath><clipPath
       id="clipPath32-6"
       clipPathUnits="userSpaceOnUse"><path
         inkscape:connector-curvature="0"
         id="path34-2"
         d="m -1354.09,1015.31 1458.517,0 0,-1165.44 -1458.517,0 0,1165.44 z" /></clipPath><linearGradient
       inkscape:collect="always"
       xlink:href="#linearGradient4614"
       id="linearGradient4604"
       x1="865.49048"
       y1="561.25916"
       x2="1134.8185"
       y2="562.26154"
       gradientUnits="userSpaceOnUse" /><clipPath
       id="clipPath532"
       clipPathUnits="userSpaceOnUse"><path
         inkscape:connector-curvature="0"
         id="path534"
         d="m 977.762,5159.049 471.499,0 0,330.258 -471.499,0 0,-330.258 z" /></clipPath></defs><sodipodi:namedview
     pagecolor="#ffffff"
     bordercolor="#666666"
     borderopacity="1"
     objecttolerance="10"
     gridtolerance="10"
     guidetolerance="10"
     inkscape:pageopacity="0"
     inkscape:pageshadow="2"
     inkscape:window-width="1187"
     inkscape:window-height="719"
     id="namedview4"
     showgrid="false"
     inkscape:zoom="0.70710678"
     inkscape:cx="536.96376"
     inkscape:cy="550.82887"
     inkscape:window-x="159"
     inkscape:window-y="212"
     inkscape:window-maximized="0"
     inkscape:current-layer="g10" /><g
     id="g10"
     inkscape:groupmode="layer"
     inkscape:label="Manual de marca Genome detective completo logos 2 e 3"
     transform="matrix(1.25,0,0,-1.25,0,1052.3625)"><g
       id="g12"
       style="fill:none;fill-opacity:1;stroke:url(#linearGradient4604);stroke-opacity:1;stroke-width:4.8128;stroke-miterlimit:4;stroke-dasharray:none"><g
         id="g14"
         clip-path="url(#clipPath16)"
         style="fill:none;fill-opacity:1;stroke:url(#linearGradient4604);stroke-opacity:1;stroke-width:4.8128;stroke-miterlimit:4;stroke-dasharray:none"><g
           id="g20"
           style="fill:none;fill-opacity:1;stroke:url(#linearGradient4604);stroke-opacity:1;stroke-width:4.8128;stroke-miterlimit:4;stroke-dasharray:none"><g
             id="g22"
             clip-path="url(#clipPath24)"
             style="fill:none;fill-opacity:1;stroke:url(#linearGradient4604);stroke-opacity:1;stroke-width:4.8128;stroke-miterlimit:4;stroke-dasharray:none"><g
               id="g28"
               style="fill:none;fill-opacity:1;stroke:url(#linearGradient4604);stroke-opacity:1;stroke-width:4.8128;stroke-miterlimit:4;stroke-dasharray:none"><g
                 id="g30"
                 style="fill:none;fill-opacity:1;stroke:url(#linearGradient4604);stroke-opacity:1;stroke-width:4.8128;stroke-miterlimit:4;stroke-dasharray:none" /><g
                 id="g36"
                 style="fill:none;fill-opacity:1;stroke:url(#linearGradient4604);stroke-opacity:1;stroke-width:4.8128;stroke-miterlimit:4;stroke-dasharray:none"><g
                   clip-path="url(#clipPath32)"
                   id="g38"
                   style="opacity:0.19999701;fill:none;fill-opacity:1;stroke:url(#linearGradient4604);stroke-opacity:1;stroke-width:4.8128;stroke-miterlimit:4;stroke-dasharray:none"><g
                     transform="translate(-26.9346,698.541)"
                     id="g40"
                     style="fill:none;fill-opacity:1;stroke:url(#linearGradient4604);stroke-opacity:1;stroke-width:4.8128;stroke-miterlimit:4;stroke-dasharray:none" /><g
                     transform="translate(29.9126,726.0688)"
                     id="g44"
                     style="fill:none;fill-opacity:1;stroke:url(#linearGradient4604);stroke-opacity:1;stroke-width:4.8128;stroke-miterlimit:4;stroke-dasharray:none" /><g
                     transform="translate(83.5039,719.5259)"
                     id="g48"
                     style="fill:none;fill-opacity:1;stroke:url(#linearGradient4604);stroke-opacity:1;stroke-width:4.8128;stroke-miterlimit:4;stroke-dasharray:none" /></g></g></g></g></g><g
           id="g52"
           transform="translate(932.3809,817.5854)"
           style="fill:none;fill-opacity:1;stroke:url(#linearGradient4604);stroke-opacity:1;stroke-width:4.8128;stroke-miterlimit:4;stroke-dasharray:none" /><g
           id="g54"
           transform="translate(202.1377,487.7695)"
           style="fill:none;fill-opacity:1;stroke:url(#linearGradient4604);stroke-opacity:1;stroke-width:4.8128;stroke-miterlimit:4;stroke-dasharray:none" /><g
           id="g58"
           transform="translate(997.8018,489.4614)"
           style="fill:none;fill-opacity:1;stroke:url(#linearGradient4604);stroke-opacity:1;stroke-width:4.8128;stroke-miterlimit:4;stroke-dasharray:none" /><g
           id="g62"
           transform="translate(495.4971,546.0171)"
           style="fill:none;fill-opacity:1;stroke:url(#linearGradient4604);stroke-opacity:1;stroke-width:4.8128;stroke-miterlimit:4;stroke-dasharray:none" /><g
           id="g66"
           transform="translate(502.4888,533.7861)"
           style="fill:none;fill-opacity:1;stroke:url(#linearGradient4604);stroke-opacity:1;stroke-width:4.8128;stroke-miterlimit:4;stroke-dasharray:none" /><g
           id="g70"
           transform="translate(673.29,486.9121)"
           style="fill:none;fill-opacity:1;stroke:url(#linearGradient4604);stroke-opacity:1;stroke-width:4.8128;stroke-miterlimit:4;stroke-dasharray:none" /><g
           id="g74"
           transform="translate(672.0977,528.752)"
           style="fill:none;fill-opacity:1;stroke:url(#linearGradient4604);stroke-opacity:1;stroke-width:4.8128;stroke-miterlimit:4;stroke-dasharray:none" /><g
           id="g78"
           transform="translate(680.2119,582.4673)"
           style="fill:none;fill-opacity:1;stroke:url(#linearGradient4604);stroke-opacity:1;stroke-width:4.8128;stroke-miterlimit:4;stroke-dasharray:none" /></g></g><g
       id="g4321"><path
         sodipodi:nodetypes="cccccccc"
         inkscape:connector-curvature="0"
         id="path64"
         style="fill:#c7c7c6;fill-opacity:1;stroke:none;stroke-opacity:1;stroke-width:4.81279993;stroke-miterlimit:4;stroke-dasharray:none;fill-rule:evenodd"
         d="m 0,0 c -5.479,-3.269 -12.62,-4.718 -16.614,-9.608 9.9,-14.827 22.525,-27.304 33.557,-41.153 -4.301,-3.234 -9.349,-5.651 -13.978,-8.518 20.9,-17.91 46.596,-31.676 63.009,-53.453 -11.245,17.43 -24.629,34.594 -36.74,52.541 C 17.198,-42.352 3.938,-23.744 0.225,0.2 Z"
         transform="translate(495.4971,546.0171)" /><path
         sodipodi:nodetypes="ccccccc"
         inkscape:connector-curvature="0"
         id="path68"
         style="fill:#c7c7c6;fill-opacity:1;stroke:none;stroke-opacity:1;stroke-width:4.81279993;stroke-miterlimit:4;stroke-dasharray:none;fill-rule:evenodd"
         d="m 0,0 c 13.881,-35.15 40.700264,-67.751 62.217264,-96.313 -2.079,6.953 -0.327264,14.952 -2.999264,21.926 -1.914,5.016 -9.099,9.592 -13.275,14.464 -12.835,14.99 -16.228,35.42 -25.757,53.765 -6.88,1.93 -14.021,3.813 -20.111,6.408 z"
         transform="translate(502.4888,533.7861)" /><path
         inkscape:connector-curvature="0"
         id="path72"
         style="fill:#c7c7c6;fill-opacity:1;stroke:none;stroke-opacity:1;stroke-width:4.8128;stroke-miterlimit:4;stroke-dasharray:none;fill-rule:evenodd"
         d="M 0,0 C -10.682,-18.832 -22.693,-36.981 -32.553,-55.23 -17.876,-32.25 6.671,-16.533 26.12,2.945 21.284,5.446 16.063,7.47 11.519,10.354 21.448,25.017 33.066,38.437 41.787,53.985 37.428,58.551 30.193,59.446 24.479,62.276 22.635,38.117 10.616,18.722 0,0"
         transform="translate(673.29,486.9121)" /><path
         sodipodi:nodetypes="ccccccc"
         inkscape:connector-curvature="0"
         id="path76"
         style="fill:#c7c7c6;fill-opacity:1;stroke:none;stroke-opacity:1;stroke-width:4.81279993;stroke-miterlimit:4;stroke-dasharray:none;fill-rule:evenodd"
         d="m 0,0 c -8.076,-19.032 -9.873,-39.662 -21.508,-55.604 -3.78,-5.183 -10.596,-10.302 -12.115,-15.451 -2.119,-7.158 0.668,-14.966 -0.861,-22.056 C -15.251,-62.969 8.537,-28.422 19.646,7.7 13.772,4.64 6.9938427,2.8429087 0.28284271,0.38890873 Z"
         transform="translate(672.0977,528.752)" /><path
         sodipodi:nodetypes="cccccccccccccccc"
         inkscape:connector-curvature="0"
         id="path80"
         style="fill:#c7c7c6;fill-opacity:1;stroke:none;stroke-opacity:1;stroke-width:4.81279993;stroke-miterlimit:4;stroke-dasharray:none;fill-rule:evenodd"
         d="m 0,0 c -30.594,-29.393 -92.616,-37.902 -137.28,-19 -11.944,5.053 -26.263,19.195 -35.508,20.114 -14.323,1.404 -37.734,-10.527 -49.749,-11.203 42.347,-14.598 81.456,-58.67 132.425,-62.588 32.359,-2.498 57.616,15.919 79.021,27.747 21.561,11.909 42.3,22.355 62.85,34.133 C 33.466707,-7.4622028 16.36854,-3.1886336 0,0 Z m -134.498,78.308 c -7.483,-23.888 -12.955,-49.761 -19.91,-74.176 24.151,-33.575 112.214,-33.38 138.215,-1.935 -5.353,25.734 -12.674,49.584 -17.868,75.468 -13.636,2.555 -24.384,7.878 -37.733,10.709 -5.252,-1.866 -7.399,-6.786 -13.008,-8.286 -12.178,15.625 -31.857,1.47 -49.296,-1.43 z"
         transform="translate(680.2119,582.4673)" /><path
         transform="matrix(0.99094962,-0.13423428,-0.13423428,-0.99094962,0,0)"
         sodipodi:nodetypes="ccccccccccccccccccccccccccccccccccccccccccccsccccccccccccccccccccccc"
         inkscape:connector-curvature="0"
         d="m 538.02325,-455.34313 c -0.68549,-0.52527 -1.37184,-1.05581 -2.05731,-1.58034 -38.59501,-29.55067 -78.2966,-59.16745 -120.87801,-83.46849 -39.43414,-22.50728 -82.60317,-40.97322 -128.18201,-46.33955 -80.98576,-9.55642 -147.08086,25.06319 -201.849143,75.36623 l -69.718286,63.05582 c 58.539901,-30.06616 70.861957,-40.81091 116.235449,-63.33242 l 51.01739,251.14363 c -1.33185,-0.34328 -9.56938,-1.80142 -9.56938,-1.80142 -11.61734,0.0225 -21.52787,13.37455 -22.79836,20.1388 l 3.3076,1.42831 c 61.15651,31.66125 129.61946,45.31096 204.11584,15.11874 43.73482,-17.73018 82.72885,-47.67793 117.30429,-80.53451 24.54562,-23.30337 39.16318,-41.53614 61.31171,-67.2639 -7.47384,-6.53026 -35.26855,-27.30188 -40.13179,-31.04559 -10.20897,12.21819 -14.79748,16.40084 -25.92735,28.94587 l -17.33438,-73.34095 c 17.60238,11.20967 35.58312,23.81904 50.05836,34.92843 M 165.38329,-527.5832 c 22.23117,-12.80914 32.87398,-15.21866 56.333,-16.49517 l 56.52843,295.02141 c -23.53854,3.96834 -39.58247,1.26231 -57.6163,-4.7318 z m 92.93238,-16.54339 c 18.06419,-0.43344 45.67603,5.10724 56.72435,12.23043 l 51.02134,250.10064 c -19.66673,14.25726 -30.7725,20.25965 -51.97729,25.95264 z m 97.78804,31.07477 c 14.80337,4.34732 30.93385,15.68047 52.46321,32.86225 l 31.91261,136.8712 c -13.17528,16.40642 -24.92856,27.69151 -42.15624,39.17115 z m 145.52568,98.51644 c 26.53834,19.51095 96.76956,72.44509 125.28287,88.84148 39.54512,22.80508 82.83967,41.54313 128.63145,47.07336 77.9786,9.42287 142.43801,-22.32027 196.64177,-69.66879 l 2.94538,-2.58438 c -4.88129,-12.59175 -17.63404,-18.46187 -33.71944,-11.21112 l -11.89389,5.70131 -7.05036,-268.42513 20.60134,5.83741 c 48.27125,9.7839 65.10644,14.93939 127.54349,28.5423 l -79.03325,-42.80657 c -47.69948,-26.30841 -100.2365,-41.85586 -156.98151,-33.73142 -17.37097,2.48708 -35.13677,7.19181 -53.27831,14.48601 -43.56124,17.50685 -82.49325,47.16566 -117.03054,79.71534 -37.29962,35.16211 -66.72104,69.31038 -99.23744,108.55438 -0.9404,1.13331 8.91128,7.33969 8.91128,7.33969 14.06095,10.77449 19.21467,13.9949 33.42026,24.78363 10.72009,-12.91744 22.90567,-27.30073 33.74817,-40.30022 l -0.68186,80.25158 c -15.17234,-10.37932 -70.14297,-53.88424 -82.45801,-63.23714 m 336.78814,114.84991 c -22.9076,10.50495 -33.80221,14.33696 -57.01144,19.63528 l -3.67297,-304.42778 c 14.32461,-4.96234 36.37234,-6.00109 52.14203,-3.61003 z m -92.98343,19.95277 c -18.34461,-0.41615 -29.86611,-3.19766 -50.33359,-13.69601 l -7.72599,-239.57963 c 16.05358,-14.78156 33.4561,-28.0333 54.23096,-37.46046 z m -125.83838,-49.07105 1.02329,-141.72943 c 10.156,-14.29758 18.33635,-22.59776 31.09038,-32.45309 l 6.68889,196.23317 c -12.14028,-4.45593 -32.11215,-16.32764 -38.80256,-22.05065 z"
         style="color:#000000;clip-rule:nonzero;display:inline;overflow:visible;visibility:visible;opacity:1;isolation:auto;mix-blend-mode:normal;color-interpolation:sRGB;color-interpolation-filters:linearRGB;solid-color:#000000;solid-opacity:1;fill:#c7c7c6;fill-opacity:1;fill-rule:nonzero;stroke:none;stroke-width:4.81279993;stroke-linecap:butt;stroke-linejoin:miter;stroke-miterlimit:4;stroke-dasharray:none;stroke-dashoffset:0;stroke-opacity:1;color-rendering:auto;image-rendering:auto;shape-rendering:auto;text-rendering:auto;enable-background:accumulate"
         id="rect4280"
         inkscape:export-filename="/home/yoika/project/wt-homepage/wt-homepage/docroot/images/logo-genome-detective.png"
         inkscape:export-xdpi="7.2237873"
         inkscape:export-ydpi="7.2237873" /></g><g
       id="layer1"
       inkscape:label="Layer 1"
       transform="matrix(3.1774153,0,0,-3.1774153,-622.66532,1689.6096)"
       style="fill:#178a80;fill-opacity:1;stroke:#178a80;stroke-opacity:1"><g
         id="flowRoot5090"
         style="font-style:normal;font-variant:normal;font-weight:normal;font-stretch:normal;font-size:40px;line-height:125%;font-family:Righteous;-inkscape-font-specification:'Righteous, Normal';text-align:center;letter-spacing:0px;word-spacing:0px;writing-mode:lr-tb;text-anchor:middle;fill:#178a80;fill-opacity:1;stroke:#178a80;stroke-width:1px;stroke-linecap:butt;stroke-linejoin:miter;stroke-opacity:1"><path
           id="path5101"
           style="fill:#178a80;fill-opacity:1;stroke:#178a80;stroke-opacity:1"
           d="m 243.19434,435.61882 q -1.95313,1.66016 -4.35547,2.5586 -2.40235,0.8789 -5,0.8789 -1.99219,0 -3.84766,-0.52734 -1.83594,-0.50781 -3.4375,-1.44531 -1.60156,-0.95704 -2.92969,-2.26563 -1.32812,-1.32812 -2.26562,-2.92969 -0.9375,-1.62109 -1.46485,-3.47656 -0.50781,-1.85547 -0.50781,-3.84766 0,-1.99218 0.50781,-3.82812 0.52735,-1.83594 1.46485,-3.4375 0.9375,-1.62109 2.26562,-2.92969 1.32813,-1.32812 2.92969,-2.26562 1.60156,-0.9375 3.4375,-1.44532 1.85547,-0.52734 3.84766,-0.52734 2.59765,0 5,0.89844 2.40234,0.8789 4.35547,2.53906 l -2.92969,4.88281 q -1.26953,-1.28906 -2.92969,-2.01172 -1.66016,-0.74218 -3.49609,-0.74218 -1.83594,0 -3.45703,0.70312 -1.60157,0.70313 -2.8125,1.91406 -1.21094,1.19141 -1.91407,2.8125 -0.70312,1.60157 -0.70312,3.4375 0,1.85547 0.70312,3.47657 0.70313,1.62109 1.91407,2.83203 1.21093,1.21094 2.8125,1.91406 1.62109,0.70313 3.45703,0.70313 1.05468,0 2.05078,-0.25391 0.99609,-0.25391 1.89453,-0.70313 l 0,-7.96875 5.41016,0 0,11.05469 z"
           inkscape:connector-curvature="0" /><path
           id="path5103"
           style="fill:#178a80;fill-opacity:1;stroke:#178a80;stroke-opacity:1"
           d="m 255.30371,433.33367 q 0.3125,0.0977 0.625,0.13671 0.3125,0.0195 0.625,0.0195 0.78125,0 1.50391,-0.21485 0.72265,-0.21484 1.34765,-0.60547 0.64453,-0.41015 1.13282,-0.97656 0.50781,-0.58594 0.82031,-1.28906 l 3.90625,3.92578 q -0.74219,1.05469 -1.71875,1.89453 -0.95703,0.83984 -2.08985,1.42578 -1.11328,0.58594 -2.36328,0.87891 -1.23047,0.3125 -2.53906,0.3125 -2.20703,0 -4.16016,-0.82031 -1.93359,-0.82032 -3.39843,-2.28516 -1.44532,-1.46484 -2.28516,-3.47656 -0.83984,-2.03125 -0.83984,-4.45313 0,-2.48047 0.83984,-4.53125 0.83984,-2.05078 2.28516,-3.49609 1.46484,-1.44531 3.39843,-2.2461 1.95313,-0.80078 4.16016,-0.80078 1.30859,0 2.55859,0.3125 1.25,0.3125 2.36329,0.89844 1.13281,0.58594 2.10937,1.44531 0.97656,0.83985 1.71875,1.89453 l -10,12.05079 z m 2.73438,-10.9961 q -0.3711,-0.13672 -0.74219,-0.17578 -0.35156,-0.0391 -0.74219,-0.0391 -1.09375,0 -2.07031,0.41015 -0.95703,0.39063 -1.67969,1.13282 -0.70312,0.74218 -1.11328,1.79687 -0.41016,1.03516 -0.41016,2.34375 0,0.29297 0.0195,0.66406 0.0391,0.3711 0.0977,0.76172 0.0781,0.3711 0.17578,0.72266 0.0977,0.35156 0.25391,0.625 l 6.21094,-8.24219 z"
           inkscape:connector-curvature="0" /><path
           style="fill:#178a80;fill-opacity:1;stroke:#178a80;stroke-opacity:1"
           sodipodi:nodetypes="ccczcccsccsssccsc"
           inkscape:connector-curvature="0"
           id="path5105"
           d="m 273.33105,438.45085 -5.33203,0 0.0542,-11.89393 c 0.0111,-5.27173 3.86196,-9.47767 9.32084,-9.43419 5.45888,0.0435 9.26279,4.16246 9.31641,9.375 l 0,11.95312 -5.33203,0 0,-11.95312 c 0,-0.54687 -0.10417,-1.0612 -0.3125,-1.54297 -0.20833,-0.49479 -0.49479,-0.92448 -0.85938,-1.28906 -0.36458,-0.36459 -0.78776,-0.65105 -1.26953,-0.85938 -0.48177,-0.20833 -0.99609,-0.3125 -1.54297,-0.3125 -0.55989,0 -1.08724,0.10417 -1.58203,0.3125 -0.49479,0.20833 -0.92448,0.49479 -1.28906,0.85938 -0.36459,0.36458 -0.65105,0.79427 -0.85938,1.28906 -0.20833,0.48177 -0.3125,0.9961 -0.3125,1.54297 z" /><path
           id="path5107"
           style="fill:#178a80;fill-opacity:1;stroke:#178a80;stroke-opacity:1"
           d="m 310.71387,427.80632 q 0,2.34375 -0.83985,4.375 -0.83984,2.01172 -2.28515,3.4961 -1.44532,1.46484 -3.39844,2.32421 -1.93359,0.83985 -4.16016,0.83985 -2.20703,0 -4.16015,-0.83985 -1.9336,-0.85937 -3.39844,-2.32421 -1.44531,-1.48438 -2.28516,-3.4961 -0.83984,-2.03125 -0.83984,-4.375 0,-2.38281 0.83984,-4.41406 0.83985,-2.03125 2.28516,-3.49609 1.46484,-1.48438 3.39844,-2.32422 1.95312,-0.83985 4.16015,-0.83985 2.22657,0 4.16016,0.80078 1.95312,0.78125 3.39844,2.2461 1.44531,1.44531 2.28515,3.49609 0.83985,2.03125 0.83985,4.53125 z m -5.3711,0 q 0,-1.28906 -0.42968,-2.32422 -0.41016,-1.05468 -1.13282,-1.79687 -0.72265,-0.76172 -1.69922,-1.15235 -0.95703,-0.41015 -2.05078,-0.41015 -1.09375,0 -2.07031,0.41015 -0.95703,0.39063 -1.67969,1.15235 -0.70312,0.74219 -1.11328,1.79687 -0.41015,1.03516 -0.41015,2.32422 0,1.21094 0.41015,2.2461 0.41016,1.03515 1.11328,1.79687 0.72266,0.76172 1.67969,1.21094 0.97656,0.42969 2.07031,0.42969 1.09375,0 2.05078,-0.41016 0.97657,-0.41016 1.69922,-1.15234 0.72266,-0.74219 1.13282,-1.79688 0.42968,-1.05469 0.42968,-2.32422 z"
           inkscape:connector-curvature="0" /><path
           sodipodi:nodetypes="ccscscscccsccscscscccsccccsccsccsccssc"
           inkscape:connector-curvature="0"
           id="path5109"
           style="fill:#178a80;fill-opacity:1;stroke:#178a80;stroke-opacity:1"
           d="m 340.30371,438.45085 -5.3125,0 0,-13.28125 c 0,-0.36458 -0.0716,-0.70963 -0.21484,-1.03515 -0.13021,-0.32552 -0.31902,-0.61198 -0.56641,-0.85938 -0.24739,-0.24739 -0.53385,-0.43619 -0.85937,-0.5664 -0.32553,-0.14323 -0.67058,-0.21485 -1.03516,-0.21485 -0.36459,0 -0.70964,0.0716 -1.03516,0.21485 -0.3125,0.13021 -0.59245,0.31901 -0.83984,0.5664 -0.23437,0.2474 -0.42318,0.53386 -0.56641,0.85938 -0.13021,0.32552 -0.19531,0.67057 -0.19531,1.03515 l 0,13.28125 -5.33203,0 0,-13.28125 c 0,-0.36458 -0.0716,-0.70963 -0.21484,-1.03515 -0.13021,-0.32552 -0.31902,-0.61198 -0.56641,-0.85938 -0.24739,-0.24739 -0.53385,-0.43619 -0.85938,-0.5664 -0.32552,-0.14323 -0.67057,-0.21485 -1.03515,-0.21485 -0.36459,0 -0.70964,0.0716 -1.03516,0.21485 -0.3125,0.13021 -0.59245,0.31901 -0.83984,0.5664 -0.23437,0.2474 -0.42318,0.53386 -0.56641,0.85938 -0.13021,0.32552 -0.19531,0.67057 -0.19531,1.03515 l 0,13.28125 -5.33203,0 0.22321,-13.27615 c 0.24528,-3.85626 1.25696,-6.21579 4.95257,-7.48557 0.89844,-0.35156 1.82943,-0.52734 2.79297,-0.52734 0.97656,0 1.92708,0.18229 2.85156,0.54688 0.9375,0.36458 1.75781,0.99609 2.46094,1.89453 0.32552,-0.44271 0.69661,-0.82032 1.11328,-1.13282 0.41667,-0.3125 0.85286,-0.5664 1.30859,-0.76171 0.46875,-0.19531 0.95053,-0.33203 1.44532,-0.41016 0.49479,-0.0912 0.98307,-0.13672 1.46484,-0.13672 1.10677,0 2.14193,0.20833 3.10547,0.625 0.97656,0.41667 1.82291,0.98958 2.53906,1.71875 0.72917,0.71615 1.30208,1.5625 1.71875,2.53906 0.41667,0.97657 0.625,2.01823 0.625,3.125 z" /><path
           id="path5111"
           style="fill:#178a80;fill-opacity:1;stroke:#178a80;stroke-opacity:1"
           d="m 352.49121,433.33367 q 0.3125,0.0977 0.625,0.13671 0.3125,0.0195 0.625,0.0195 0.78125,0 1.50391,-0.21485 0.72265,-0.21484 1.34765,-0.60547 0.64453,-0.41015 1.13282,-0.97656 0.50781,-0.58594 0.82031,-1.28906 l 3.90625,3.92578 q -0.74219,1.05469 -1.71875,1.89453 -0.95703,0.83984 -2.08985,1.42578 -1.11328,0.58594 -2.36328,0.87891 -1.23047,0.3125 -2.53906,0.3125 -2.20703,0 -4.16016,-0.82031 -1.93359,-0.82032 -3.39843,-2.28516 -1.44532,-1.46484 -2.28516,-3.47656 -0.83984,-2.03125 -0.83984,-4.45313 0,-2.48047 0.83984,-4.53125 0.83984,-2.05078 2.28516,-3.49609 1.46484,-1.44531 3.39843,-2.2461 1.95313,-0.80078 4.16016,-0.80078 1.30859,0 2.55859,0.3125 1.25,0.3125 2.36329,0.89844 1.13281,0.58594 2.10937,1.44531 0.97656,0.83985 1.71875,1.89453 l -10,12.05079 z m 2.73438,-10.9961 q -0.3711,-0.13672 -0.74219,-0.17578 -0.35156,-0.0391 -0.74219,-0.0391 -1.09375,0 -2.07031,0.41015 -0.95703,0.39063 -1.67969,1.13282 -0.70312,0.74218 -1.11328,1.79687 -0.41016,1.03516 -0.41016,2.34375 0,0.29297 0.0195,0.66406 0.0391,0.3711 0.0977,0.76172 0.0781,0.3711 0.17578,0.72266 0.0977,0.35156 0.25391,0.625 l 6.21094,-8.24219 z"
           inkscape:connector-curvature="0" /><path
           id="path5113"
           style="fill:#178a80;fill-opacity:1;stroke:#178a80;stroke-opacity:1"
           d="m 399.36621,424.44695 q 0,1.93359 -0.50781,3.73047 -0.48828,1.77734 -1.40625,3.33984 -0.91797,1.54297 -2.1875,2.83203 -1.26953,1.26953 -2.83203,2.1875 -1.5625,0.91797 -3.35938,1.42578 -1.77734,0.48828 -3.71094,0.48828 l -8.4375,0 0,-28.00781 8.4375,0 q 1.9336,0 3.71094,0.50781 1.79688,0.48828 3.35938,1.40625 1.5625,0.91797 2.83203,2.20703 1.26953,1.26954 2.1875,2.83204 0.91797,1.54296 1.40625,3.33984 0.50781,1.77734 0.50781,3.71094 z m -5.60547,0 q 0,-1.73828 -0.66406,-3.26172 -0.64453,-1.52344 -1.79688,-2.65625 -1.13281,-1.15235 -2.67578,-1.81641 -1.52343,-0.66406 -3.26172,-0.66406 l -2.79296,0 0,16.79687 2.79296,0 q 1.73829,0 3.26172,-0.64453 1.54297,-0.66406 2.67578,-1.79687 1.15235,-1.15235 1.79688,-2.67578 0.66406,-1.54297 0.66406,-3.28125 z"
           inkscape:connector-curvature="0" /><path
           id="path5115"
           style="fill:#178a80;fill-opacity:1;stroke:#178a80;stroke-opacity:1"
           d="m 410.85059,433.33367 q 0.3125,0.0977 0.625,0.13671 0.3125,0.0195 0.625,0.0195 0.78125,0 1.5039,-0.21485 0.72266,-0.21484 1.34766,-0.60547 0.64453,-0.41015 1.13281,-0.97656 0.50781,-0.58594 0.82031,-1.28906 l 3.90625,3.92578 q -0.74218,1.05469 -1.71875,1.89453 -0.95703,0.83984 -2.08984,1.42578 -1.11328,0.58594 -2.36328,0.87891 -1.23047,0.3125 -2.53906,0.3125 -2.20704,0 -4.16016,-0.82031 -1.93359,-0.82032 -3.39844,-2.28516 -1.44531,-1.46484 -2.28515,-3.47656 -0.83985,-2.03125 -0.83985,-4.45313 0,-2.48047 0.83985,-4.53125 0.83984,-2.05078 2.28515,-3.49609 1.46485,-1.44531 3.39844,-2.2461 1.95312,-0.80078 4.16016,-0.80078 1.30859,0 2.55859,0.3125 1.25,0.3125 2.36328,0.89844 1.13281,0.58594 2.10938,1.44531 0.97656,0.83985 1.71875,1.89453 l -10,12.05079 z m 2.73437,-10.9961 q -0.37109,-0.13672 -0.74219,-0.17578 -0.35156,-0.0391 -0.74218,-0.0391 -1.09375,0 -2.07032,0.41015 -0.95703,0.39063 -1.67968,1.13282 -0.70313,0.74218 -1.11329,1.79687 -0.41015,1.03516 -0.41015,2.34375 0,0.29297 0.0195,0.66406 0.0391,0.3711 0.0977,0.76172 0.0781,0.3711 0.17578,0.72266 0.0976,0.35156 0.2539,0.625 l 6.21094,-8.24219 z"
           inkscape:connector-curvature="0" /><path
           id="path5117"
           style="fill:#178a80;fill-opacity:1;stroke:#178a80;stroke-opacity:1"
           d="m 434.03418,438.45085 q -1.93359,0 -3.63281,-0.72265 -1.69922,-0.74219 -2.98828,-2.01172 -1.26954,-1.28906 -2.01172,-2.98828 -0.72266,-1.69922 -0.72266,-3.63282 l 0,-6.21093 -2.59766,0 0,-5.3125 2.59766,0 0,-8.35938 5.3125,0 0,8.35938 8.08594,0 0,5.3125 -8.08594,0 0,6.21093 q 0,0.83985 0.3125,1.58204 0.3125,0.72265 0.85938,1.26953 0.54687,0.54687 1.28906,0.8789 0.74219,0.3125 1.58203,0.3125 l 4.04297,0 0,5.3125 -4.04297,0 z"
           inkscape:connector-curvature="0" /><path
           id="path5119"
           style="fill:#178a80;fill-opacity:1;stroke:#178a80;stroke-opacity:1"
           d="m 449.36621,433.33367 q 0.3125,0.0977 0.625,0.13671 0.3125,0.0195 0.625,0.0195 0.78125,0 1.50391,-0.21485 0.72265,-0.21484 1.34765,-0.60547 0.64453,-0.41015 1.13282,-0.97656 0.50781,-0.58594 0.82031,-1.28906 l 3.90625,3.92578 q -0.74219,1.05469 -1.71875,1.89453 -0.95703,0.83984 -2.08985,1.42578 -1.11328,0.58594 -2.36328,0.87891 -1.23047,0.3125 -2.53906,0.3125 -2.20703,0 -4.16016,-0.82031 -1.93359,-0.82032 -3.39843,-2.28516 -1.44532,-1.46484 -2.28516,-3.47656 -0.83984,-2.03125 -0.83984,-4.45313 0,-2.48047 0.83984,-4.53125 0.83984,-2.05078 2.28516,-3.49609 1.46484,-1.44531 3.39843,-2.2461 1.95313,-0.80078 4.16016,-0.80078 1.30859,0 2.55859,0.3125 1.25,0.3125 2.36329,0.89844 1.13281,0.58594 2.10937,1.44531 0.97656,0.83985 1.71875,1.89453 l -10,12.05079 z m 2.73438,-10.9961 q -0.3711,-0.13672 -0.74219,-0.17578 -0.35156,-0.0391 -0.74219,-0.0391 -1.09375,0 -2.07031,0.41015 -0.95703,0.39063 -1.67969,1.13282 -0.70312,0.74218 -1.11328,1.79687 -0.41016,1.03516 -0.41016,2.34375 0,0.29297 0.0195,0.66406 0.0391,0.3711 0.0977,0.76172 0.0781,0.3711 0.17578,0.72266 0.0977,0.35156 0.25391,0.625 l 6.21094,-8.24219 z"
           inkscape:connector-curvature="0" /><path
           id="path5121"
           style="fill:#178a80;fill-opacity:1;stroke:#178a80;stroke-opacity:1"
           d="m 480.18652,421.69304 -3.90625,3.92578 q -0.29297,-0.82031 -0.80078,-1.46484 -0.50781,-0.66406 -1.15234,-1.11328 -0.625,-0.44922 -1.36719,-0.6836 -0.74219,-0.23437 -1.52344,-0.23437 -1.09375,0 -2.07031,0.44922 -0.95703,0.44922 -1.67969,1.26953 -0.70312,0.80078 -1.11328,1.91406 -0.41015,1.11328 -0.41015,2.46094 0,1.09375 0.41015,2.05078 0.41016,0.95703 1.11328,1.67969 0.72266,0.72265 1.67969,1.13281 0.97656,0.41016 2.07031,0.41016 0.78125,0 1.50391,-0.21485 0.72266,-0.21484 1.34766,-0.60547 0.64453,-0.41015 1.13281,-0.97656 0.50781,-0.58594 0.82031,-1.28906 l 3.90625,3.92578 q -0.74219,1.05469 -1.71875,1.89453 -0.95703,0.83984 -2.08984,1.42578 -1.11328,0.58594 -2.36328,0.87891 -1.23047,0.3125 -2.53907,0.3125 -2.20703,0 -4.16015,-0.82031 -1.9336,-0.83985 -3.39844,-2.28516 -1.44531,-1.44531 -2.28516,-3.37891 -0.83984,-1.93359 -0.83984,-4.14062 0,-2.40235 0.83984,-4.49219 0.83985,-2.08984 2.28516,-3.63281 1.46484,-1.5625 3.39844,-2.46094 1.95312,-0.89844 4.16015,-0.89844 1.3086,0 2.5586,0.33203 1.26953,0.33204 2.40234,0.97657 1.15234,0.625 2.10938,1.54297 0.97656,0.91796 1.67968,2.10937 z"
           inkscape:connector-curvature="0" /><path
           id="path5123"
           style="fill:#178a80;fill-opacity:1;stroke:#178a80;stroke-opacity:1"
           d="m 493.25293,438.45085 q -1.93359,0 -3.63281,-0.72265 -1.69922,-0.74219 -2.98828,-2.01172 -1.26954,-1.28906 -2.01172,-2.98828 -0.72266,-1.69922 -0.72266,-3.63282 l 0,-6.21093 -2.59766,0 0,-5.3125 2.59766,0 0,-8.35938 5.3125,0 0,8.35938 8.08594,0 0,5.3125 -8.08594,0 0,6.21093 q 0,0.83985 0.3125,1.58204 0.3125,0.72265 0.85938,1.26953 0.54687,0.54687 1.28906,0.8789 0.74219,0.3125 1.58203,0.3125 l 4.04297,0 0,5.3125 -4.04297,0 z"
           inkscape:connector-curvature="0" /><path
           id="path5125"
           style="fill:#178a80;fill-opacity:1;stroke:#178a80;stroke-opacity:1"
           d="m 506.55371,411.84929 q 0,0.74219 -0.29297,1.38672 -0.27344,0.64453 -0.76172,1.13281 -0.48828,0.46875 -1.15234,0.76172 -0.64453,0.27344 -1.38672,0.27344 -0.74219,0 -1.40625,-0.27344 -0.64453,-0.29297 -1.13281,-0.76172 -0.46875,-0.48828 -0.76172,-1.13281 -0.27344,-0.64453 -0.27344,-1.38672 0,-0.72266 0.27344,-1.36719 0.29297,-0.66406 0.76172,-1.13281 0.48828,-0.48828 1.13281,-0.76172 0.66406,-0.29297 1.40625,-0.29297 0.74219,0 1.38672,0.29297 0.66406,0.27344 1.15234,0.76172 0.48828,0.46875 0.76172,1.13281 0.29297,0.64453 0.29297,1.36719 z m -0.91797,26.60156 -5.37109,0 0,-20.91797 5.37109,0 0,20.91797 z"
           inkscape:connector-curvature="0" /><path
           id="path5127"
           style="fill:#178a80;fill-opacity:1;stroke:#178a80;stroke-opacity:1"
           d="m 515.65527,438.45085 -7.96875,-20.91797 6.07422,0 4.57031,13.04688 4.55079,-13.04688 6.09375,0 -7.96875,20.91797 -5.35157,0 z"
           inkscape:connector-curvature="0" /><path
           id="path5129"
           style="fill:#178a80;fill-opacity:1;stroke:#178a80;stroke-opacity:1"
           d="m 538.74121,433.33367 q 0.3125,0.0977 0.625,0.13671 0.3125,0.0195 0.625,0.0195 0.78125,0 1.50391,-0.21485 0.72265,-0.21484 1.34765,-0.60547 0.64453,-0.41015 1.13282,-0.97656 0.50781,-0.58594 0.82031,-1.28906 l 3.90625,3.92578 q -0.74219,1.05469 -1.71875,1.89453 -0.95703,0.83984 -2.08985,1.42578 -1.11328,0.58594 -2.36328,0.87891 -1.23047,0.3125 -2.53906,0.3125 -2.20703,0 -4.16016,-0.82031 -1.93359,-0.82032 -3.39843,-2.28516 -1.44532,-1.46484 -2.28516,-3.47656 -0.83984,-2.03125 -0.83984,-4.45313 0,-2.48047 0.83984,-4.53125 0.83984,-2.05078 2.28516,-3.49609 1.46484,-1.44531 3.39843,-2.2461 1.95313,-0.80078 4.16016,-0.80078 1.30859,0 2.55859,0.3125 1.25,0.3125 2.36329,0.89844 1.13281,0.58594 2.10937,1.44531 0.97656,0.83985 1.71875,1.89453 l -10,12.05079 z m 2.73438,-10.9961 q -0.3711,-0.13672 -0.74219,-0.17578 -0.35156,-0.0391 -0.74219,-0.0391 -1.09375,0 -2.07031,0.41015 -0.95703,0.39063 -1.67969,1.13282 -0.70312,0.74218 -1.11328,1.79687 -0.41016,1.03516 -0.41016,2.34375 0,0.29297 0.0195,0.66406 0.0391,0.3711 0.0977,0.76172 0.0781,0.3711 0.17578,0.72266 0.0977,0.35156 0.25391,0.625 l 6.21094,-8.24219 z"
           inkscape:connector-curvature="0" /></g></g></g></svg>